<svg xmlns="http://www.w3.org/2000/svg" width="330mm" height="278mm" viewBox="0 0 330 278">
<polygon points="0,0 330,0 330,278 0,278" fill="#FBF8F2"/>
<polygon points="27,90 97,90 102,60 162,60 167,90 167,20 172,20 174,8 230,8 232,20 237,20 237,90 242,60 302,60 307,90 307,160 302,190 242,190 237,160 167,160 162,190 102,190 97,160 97,230 92,230 90,242 34,242 32,230 27,230 27,160 15,154 15,96" fill="#242A4A"/>
<polygon points="97,90 167,90 167,160 97,160" fill="#343958"/>
<polygon points="237,90 307,90 307,160 237,160" fill="#343958"/>
<text x="62" y="104" font-family="Helvetica,Arial,sans-serif" font-size="8.4" fill="#F4F5DB" text-anchor="middle" font-weight="bold">Pockle</text>
<text x="62" y="112" font-family="Helvetica,Arial,sans-serif" font-size="3.35" fill="#F4F5DB" text-anchor="middle" font-weight="bold">MIDNIGHT GLOW</text>
<circle cx="62" cy="131" r="11" fill="#CBEAA3"/>
<circle cx="66.62" cy="127.7" r="8.8" fill="#242A4A"/>
<text x="62" y="152" font-family="Helvetica,Arial,sans-serif" font-size="2.65" fill="#F4F5DB" text-anchor="middle" font-weight="bold">GLOW COLLECTION</text>
<text x="132" y="105" font-family="Helvetica,Arial,sans-serif" font-size="3" fill="#F4F5DB" text-anchor="middle" font-weight="bold">GLOW COLLECTION</text>
<circle cx="116" cy="120" r="4.3" fill="#CBEAA3"/>
<circle cx="117.806" cy="118.71" r="3.44" fill="#242A4A"/>
<circle cx="132" cy="127" r="4.3" fill="#CBEAA3"/>
<circle cx="133.806" cy="125.71" r="3.44" fill="#242A4A"/>
<circle cx="148" cy="135" r="4.3" fill="#CBEAA3"/>
<circle cx="149.806" cy="133.71" r="3.44" fill="#242A4A"/>
<text x="132" y="149" font-family="Helvetica,Arial,sans-serif" font-size="2.45" fill="#F4F5DB" text-anchor="middle">LIGHTS OFF / GLOW ON</text>
<text x="202" y="104" font-family="Helvetica,Arial,sans-serif" font-size="7" fill="#F4F5DB" text-anchor="middle" font-weight="bold">Pockle</text>
<text x="202" y="118" font-family="Helvetica,Arial,sans-serif" font-size="3.5" fill="#F4F5DB" text-anchor="middle" font-weight="bold">A LITTLE WONDER</text>
<text x="202" y="126" font-family="Helvetica,Arial,sans-serif" font-size="3" fill="#F4F5DB" text-anchor="middle">One surprise Pockle</text>
<text x="202" y="132" font-family="Helvetica,Arial,sans-serif" font-size="3" fill="#F4F5DB" text-anchor="middle">from this collection.</text>
<text x="202" y="149" font-family="Helvetica,Arial,sans-serif" font-size="2.5" fill="#F4F5DB" text-anchor="middle" font-weight="bold">COLLECT / OPEN / SQUISH</text>
<text x="272" y="107" font-family="Helvetica,Arial,sans-serif" font-size="3.35" fill="#F4F5DB" text-anchor="middle" font-weight="bold">MIDNIGHT GLOW</text>
<circle cx="272" cy="126" r="8" fill="#CBEAA3"/>
<circle cx="275.36" cy="123.6" r="6.4" fill="#242A4A"/>
<text x="272" y="149" font-family="Helvetica,Arial,sans-serif" font-size="2.65" fill="#F4F5DB" text-anchor="middle" font-weight="bold">SURPRISE VARIANT</text>
<text x="202" y="58" font-family="Helvetica,Arial,sans-serif" font-size="8" fill="#F4F5DB" text-anchor="middle" font-weight="bold">Pockle</text>
<text x="202" y="67" font-family="Helvetica,Arial,sans-serif" font-size="3" fill="#F4F5DB" text-anchor="middle" font-weight="bold">GLOW COLLECTION</text>
<circle cx="62" cy="195" r="8" fill="#CBEAA3"/>
<circle cx="65.36" cy="192.6" r="6.4" fill="#242A4A"/>
<text x="62" y="214" font-family="Helvetica,Arial,sans-serif" font-size="2.8" fill="#F4F5DB" text-anchor="middle">A little wonder, in your hands.</text>
<g id="cut-line">
<polygon points="27,90 97,90 102,60 162,60 167,90 167,20 172,20 174,8 230,8 232,20 237,20 237,90 242,60 302,60 307,90 307,160 302,190 242,190 237,160 167,160 162,190 102,190 97,160 97,230 92,230 90,242 34,242 32,230 27,230 27,160 15,154 15,96" fill="none" stroke="#D94470" stroke-width="0.35"/>
</g>
<g id="fold-lines">
<line x1="27" y1="90" x2="27" y2="160" stroke="#1687AD" stroke-width="0.3" stroke-dasharray="2 1.5"/>
<line x1="97" y1="90" x2="97" y2="160" stroke="#1687AD" stroke-width="0.3" stroke-dasharray="2 1.5"/>
<line x1="167" y1="90" x2="167" y2="160" stroke="#1687AD" stroke-width="0.3" stroke-dasharray="2 1.5"/>
<line x1="237" y1="90" x2="237" y2="160" stroke="#1687AD" stroke-width="0.3" stroke-dasharray="2 1.5"/>
<line x1="97" y1="90" x2="167" y2="90" stroke="#1687AD" stroke-width="0.3" stroke-dasharray="2 1.5"/>
<line x1="167" y1="90" x2="237" y2="90" stroke="#1687AD" stroke-width="0.3" stroke-dasharray="2 1.5"/>
<line x1="237" y1="90" x2="307" y2="90" stroke="#1687AD" stroke-width="0.3" stroke-dasharray="2 1.5"/>
<line x1="167" y1="20" x2="237" y2="20" stroke="#1687AD" stroke-width="0.3" stroke-dasharray="2 1.5"/>
<line x1="27" y1="160" x2="97" y2="160" stroke="#1687AD" stroke-width="0.3" stroke-dasharray="2 1.5"/>
<line x1="97" y1="160" x2="167" y2="160" stroke="#1687AD" stroke-width="0.3" stroke-dasharray="2 1.5"/>
<line x1="237" y1="160" x2="307" y2="160" stroke="#1687AD" stroke-width="0.3" stroke-dasharray="2 1.5"/>
<line x1="27" y1="230" x2="97" y2="230" stroke="#1687AD" stroke-width="0.3" stroke-dasharray="2 1.5"/>
</g>
<text x="132" y="47" font-family="Helvetica,Arial,sans-serif" font-size="2.5" fill="#77716D" text-anchor="middle">SIDE DUST FLAP</text>
<text x="272" y="47" font-family="Helvetica,Arial,sans-serif" font-size="2.5" fill="#77716D" text-anchor="middle">SIDE DUST FLAP</text>
<text x="62" y="78" font-family="Helvetica,Arial,sans-serif" font-size="2.6" fill="#77716D" text-anchor="middle" font-weight="bold">FRONT</text>
<text x="202" y="177" font-family="Helvetica,Arial,sans-serif" font-size="2.6" fill="#77716D" text-anchor="middle" font-weight="bold">BACK</text>
<text x="18" y="253" font-family="Helvetica,Arial,sans-serif" font-size="5" fill="#523148" font-weight="bold">02 / MIDNIGHT GLOW</text>
<text x="18" y="261" font-family="Helvetica,Arial,sans-serif" font-size="3" fill="#77716D">Illustrative 70 mm cube carton / reverse tuck ends / 12 mm glue tab</text>
<line x1="18" y1="269" x2="28" y2="269" stroke="#D94470" stroke-width="0.45"/>
<text x="31" y="270" font-family="Helvetica,Arial,sans-serif" font-size="3" fill="#77716D">Cut</text>
<line x1="52" y1="269" x2="62" y2="269" stroke="#1687AD" stroke-width="0.4" stroke-dasharray="2 1.5"/>
<text x="65" y="270" font-family="Helvetica,Arial,sans-serif" font-size="3" fill="#77716D">Fold</text>
<text x="108" y="270" font-family="Helvetica,Arial,sans-serif" font-size="2.65" fill="#77716D">CONCEPT ONLY / no bleed, stock, closure tolerances or print approval</text>
</svg>
